<?xml version="1.0" encoding="UTF-8" standalone="no"?>
<svg
   width="24"
   height="24"
   viewBox="0 -960 960 960"
   version="1.1"
   id="svg1"
   sodipodi:docname="location.svg"
   inkscape:version="1.4.2 (ebf0e940d0, 2025-05-08)"
   xmlns:inkscape="http://www.inkscape.org/namespaces/inkscape"
   xmlns:sodipodi="http://sodipodi.sourceforge.net/DTD/sodipodi-0.dtd"
   xmlns="http://www.w3.org/2000/svg"
   xmlns:svg="http://www.w3.org/2000/svg">
  <defs
     id="defs1" />
  <sodipodi:namedview
     id="namedview1"
     pagecolor="#ffffff"
     bordercolor="#000000"
     borderopacity="0.25"
     inkscape:showpageshadow="2"
     inkscape:pageopacity="0.0"
     inkscape:pagecheckerboard="0"
     inkscape:deskcolor="#d1d1d1"
     inkscape:zoom="36.208333"
     inkscape:cx="12"
     inkscape:cy="11.986191"
     inkscape:window-width="1078"
     inkscape:window-height="1033"
     inkscape:window-x="0"
     inkscape:window-y="0"
     inkscape:window-maximized="0"
     inkscape:current-layer="svg1" />
  <path
     d="M480-480q33 0 56.5-23.5T560-560t-23.5-56.5T480-640t-56.5 23.5T400-560t23.5 56.5T480-480m0 294q122-112 181-203.5T720-552q0-109-69.5-178.5T480-800t-170.5 69.5T240-552q0 71 59 162.5T480-186m0 106Q319-217 239.5-334.5T160-552q0-150 96.5-239T480-880t223.5 89T800-552q0 100-79.5 217.5T480-80m0-480"
     id="path1"
     style="fill:#0238b1;fill-opacity:1" />
</svg>
