<?xml version="1.0" encoding="UTF-8" standalone="no"?>
<!-- Created with Inkscape (http://www.inkscape.org/) -->

<svg
   width="321.26376mm"
   height="106.97052mm"
   viewBox="0 0 321.2638 106.97052"
   version="1.1"
   id="svg1"
   sodipodi:docname="logo.svg"
   inkscape:version="1.4 (e7c3feb100, 2024-10-09)"
   xml:space="preserve"
   xmlns:inkscape="http://www.inkscape.org/namespaces/inkscape"
   xmlns:sodipodi="http://sodipodi.sourceforge.net/DTD/sodipodi-0.dtd"
   xmlns="http://www.w3.org/2000/svg"
   xmlns:svg="http://www.w3.org/2000/svg"><sodipodi:namedview
     id="namedview1"
     pagecolor="#ffffff"
     bordercolor="#000000"
     borderopacity="0.25"
     inkscape:showpageshadow="2"
     inkscape:pageopacity="0.0"
     inkscape:pagecheckerboard="0"
     inkscape:deskcolor="#d1d1d1"
     inkscape:document-units="mm"
     inkscape:zoom="0.91848385"
     inkscape:cx="567.23915"
     inkscape:cy="221.56078"
     inkscape:window-width="1354"
     inkscape:window-height="726"
     inkscape:window-x="0"
     inkscape:window-y="0"
     inkscape:window-maximized="0"
     inkscape:current-layer="g7" /><defs
     id="defs1"><inkscape:path-effect
       effect="powerstroke"
       message=""
       id="path-effect3"
       is_visible="true"
       lpeversion="1.3"
       scale_width="2.5"
       interpolator_type="CentripetalCatmullRom"
       interpolator_beta="0.2"
       start_linecap_type="zerowidth"
       end_linecap_type="peak"
       offset_points="0.2,0.3447215 | 1.5,0.3447215 | 2.8,0.3447215"
       linejoin_type="round"
       miter_limit="4"
       not_jump="false"
       sort_points="true" /><inkscape:path-effect
       effect="powerstroke"
       message=""
       id="path-effect2"
       is_visible="true"
       lpeversion="1.3"
       scale_width="2.5"
       interpolator_type="CentripetalCatmullRom"
       interpolator_beta="0.2"
       start_linecap_type="zerowidth"
       end_linecap_type="peak"
       offset_points="0.2,0.36011699 | 1.4999999,0.36011699 | 2.8000001,0.36011699"
       linejoin_type="round"
       miter_limit="4"
       not_jump="false"
       sort_points="true" /><inkscape:path-effect
       effect="bspline"
       id="path-effect1"
       is_visible="true"
       lpeversion="1.3"
       weight="33.333333"
       steps="2"
       helper_size="0"
       apply_no_weight="true"
       apply_with_weight="true"
       only_selected="false"
       uniform="false" /><inkscape:path-effect
       effect="bspline"
       id="path-effect1-6"
       is_visible="true"
       lpeversion="1.3"
       weight="33.333333"
       steps="2"
       helper_size="0"
       apply_no_weight="true"
       apply_with_weight="true"
       only_selected="false"
       uniform="false" /><inkscape:path-effect
       effect="bspline"
       id="path-effect1-64"
       is_visible="true"
       lpeversion="1.3"
       weight="33.333333"
       steps="2"
       helper_size="0"
       apply_no_weight="true"
       apply_with_weight="true"
       only_selected="false"
       uniform="false" /><marker
       markerWidth="1.05"
       markerHeight="0.99999994"
       refX="0"
       refY="0"
       orient="auto-start-reverse"
       id="CapRibbon1-7"
       viewBox="0 0 1.05 1"
       inkscape:stockid="Ribbon cap"
       style="overflow:visible"
       preserveAspectRatio="xMidYMid"
       inkscape:isstock="true"
       inkscape:collect="always"
       markerUnits="strokeWidth"><path
         style="fill:context-stroke;stroke-linecap:butt"
         d="M 0,-1 H 2 L 1,0 2,1 H 0 L -0.1,0 Z"
         sodipodi:nodetypes="sssssscsss"
         transform="scale(0.5)"
         id="path62-5" /></marker><marker
       markerWidth="0.52499998"
       markerHeight="0.99999994"
       refX="0"
       refY="0"
       orient="auto-start-reverse"
       id="CapTriangle-3"
       viewBox="0 0 0.525 1"
       inkscape:stockid="Triangle cap"
       style="overflow:visible"
       preserveAspectRatio="xMidYMid"
       inkscape:isstock="true"
       inkscape:collect="always"><path
         style="fill:context-stroke;stroke-linecap:butt"
         d="M 0,-1 1,0 0,1 -0.05,0 Z"
         sodipodi:nodetypes="sssssscsss"
         transform="scale(0.5)"
         id="path61-5" /></marker><inkscape:path-effect
       effect="bspline"
       id="path-effect1-6-1"
       is_visible="true"
       lpeversion="1.3"
       weight="33.333333"
       steps="2"
       helper_size="0"
       apply_no_weight="true"
       apply_with_weight="true"
       only_selected="false"
       uniform="false" /><marker
       markerWidth="1.05"
       markerHeight="0.99999994"
       refX="0"
       refY="0"
       orient="auto-start-reverse"
       id="CapRibbon1"
       viewBox="0 0 1.05 1"
       inkscape:stockid="Ribbon cap"
       style="overflow:visible"
       preserveAspectRatio="xMidYMid"
       inkscape:isstock="true"
       inkscape:collect="always"
       markerUnits="strokeWidth"><path
         style="fill:context-stroke;stroke-linecap:butt"
         d="M 0,-1 H 2 L 1,0 2,1 H 0 L -0.1,0 Z"
         sodipodi:nodetypes="sssssscsss"
         transform="scale(0.5)"
         id="path62" /></marker><marker
       markerWidth="0.52499998"
       markerHeight="0.99999994"
       refX="0"
       refY="0"
       orient="auto-start-reverse"
       id="CapTriangle"
       viewBox="0 0 0.525 1"
       inkscape:stockid="Triangle cap"
       style="overflow:visible"
       preserveAspectRatio="xMidYMid"
       inkscape:isstock="true"
       inkscape:collect="always"><path
         style="fill:context-stroke;stroke-linecap:butt"
         d="M 0,-1 1,0 0,1 -0.05,0 Z"
         sodipodi:nodetypes="sssssscsss"
         transform="scale(0.5)"
         id="path61" /></marker><inkscape:path-effect
       effect="bspline"
       id="path-effect1-9"
       is_visible="true"
       lpeversion="1.3"
       weight="33.333333"
       steps="2"
       helper_size="0"
       apply_no_weight="true"
       apply_with_weight="true"
       only_selected="false"
       uniform="false" /></defs><g
     inkscape:label="Layer 1"
     inkscape:groupmode="layer"
     id="layer1"
     transform="translate(66.651121,220.91033)"><g
       id="g4"
       transform="translate(6.4000004,4.9000004)"><g
         id="g7"><g
           id="g1"
           transform="matrix(2.2191334,0,0,3.1101942,-103.16463,-274.97729)"
           style="fill:#012c61;fill-opacity:1;stroke:#012c61;stroke-width:0.402844;stroke-linejoin:round;stroke-dasharray:none;stroke-opacity:1"><g
             id="g6"
             style="fill:#012c61;fill-opacity:1;stroke:#012c61;stroke-width:0.537125;stroke-dasharray:none;stroke-opacity:1"><text
               xml:space="preserve"
               style="font-style:normal;font-variant:normal;font-weight:normal;font-stretch:normal;font-size:43.9743px;font-family:Arial;-inkscape-font-specification:Arial;text-align:start;writing-mode:lr-tb;direction:ltr;text-anchor:start;fill:#012c61;fill-opacity:1;stroke:#012c61;stroke-width:0.555489;stroke-dasharray:none;stroke-opacity:1"
               x="17.260681"
               y="58.623947"
               id="text2"
               transform="scale(1.1838647,0.84469113)"><tspan
                 sodipodi:role="line"
                 id="tspan2"
                 style="font-style:italic;font-variant:normal;font-weight:bold;font-stretch:normal;font-family:Arial;-inkscape-font-specification:'Arial Bold Italic';fill:#012c61;fill-opacity:1;stroke:#012c61;stroke-width:0.555489;stroke-dasharray:none;stroke-opacity:1"
                 x="17.260681"
                 y="58.623947">VF</tspan></text><text
               xml:space="preserve"
               style="font-style:normal;font-variant:normal;font-weight:normal;font-stretch:normal;font-size:42.5205px;font-family:Arial;-inkscape-font-specification:Arial;text-align:start;writing-mode:lr-tb;direction:ltr;text-anchor:start;fill:#012c61;fill-opacity:1;stroke:#012c61;stroke-width:0.537125;stroke-linejoin:round;stroke-dasharray:none;stroke-opacity:1"
               x="72.155167"
               y="58.093155"
               id="text2-3"
               transform="scale(1.1838647,0.84469113)"><tspan
                 sodipodi:role="line"
                 id="tspan2-5"
                 style="font-style:italic;font-variant:normal;font-weight:bold;font-stretch:normal;font-family:Arial;-inkscape-font-specification:'Arial Bold Italic';fill:#012c61;fill-opacity:1;stroke:#012c61;stroke-width:0.537125;stroke-dasharray:none;stroke-opacity:1"
                 x="72.155167"
                 y="58.093155">C</tspan></text></g></g><path
           style="fill:#f32e23;fill-opacity:1;fill-rule:nonzero;stroke:#ffffff;stroke-width:0.362838;stroke-dasharray:none;stroke-opacity:1;marker-start:url(#CapRibbon1);marker-end:url(#CapTriangle)"
           d="m -38.562902,-107.3167 c 4.329947,0.71548 14.599243,2.62478 27.478017,4.52333 9.5756871,1.41163 24.460085,3.427378 40.406862,5.351144 19.728326,2.379958 41.465901,4.671745 61.214397,5.953666 9.380396,0.608903 18.039216,0.974073 25.755226,1.089998 8.25153,0.12397 15.08158,-0.04179 20.57779,-0.433758 2.80127,-0.199774 5.44597,-0.476281 7.81723,-0.848646 2.2446,-0.352473 4.24834,-0.791423 5.91326,-1.335123 0.81161,-0.26504 1.54931,-0.557085 2.19927,-0.879865 0.64184,-0.318744 1.20926,-0.672937 1.68069,-1.069686 0.46879,-0.394523 0.85421,-0.840935 1.11701,-1.347279 0.13134,-0.253058 0.23072,-0.518644 0.29422,-0.795882 0.0635,-0.277325 0.0899,-0.560735 0.0793,-0.848228 -0.021,-0.574725 -0.18807,-1.141994 -0.45435,-1.691708 -0.26746,-0.552163 -0.64275,-1.102793 -1.09911,-1.649443 -0.92612,-1.10938 -2.23411,-2.25885 -3.80143,-3.42708 -1.63478,-1.21852 -3.5761,-2.47518 -5.70176,-3.73933 -2.26721,-1.34833 -4.75644,-2.71236 -7.31249,-4.04713 -6.09591,-3.1833 -13.00004,-6.417 -18.19723,-8.80273 -1.43227,-0.65747 -2.79852,-1.27943 -4.03517,-1.83976 -6.43801,-2.91711 -15.36662,-6.86445 -16.762987,-7.48333 l -1.137085,0.43869 0.438689,1.13709 c 1.400454,0.62069 10.320293,4.56416 16.750023,7.47751 1.23466,0.55944 2.59829,1.18019 4.02746,1.83625 5.19205,2.38337 12.06327,5.60208 18.11846,8.76411 2.53773,1.3252 4.9975,2.67345 7.22931,4.00073 2.09498,1.2459 3.98192,2.46902 5.55272,3.63985 1.51592,1.12992 2.70467,2.18702 3.50834,3.14971 0.39332,0.471137 0.68095,0.903792 0.87106,1.296256 0.18872,0.389596 0.27281,0.721784 0.2831,1.003254 0.005,0.139782 -0.008,0.272563 -0.037,0.400466 -0.0293,0.128076 -0.0764,0.256634 -0.14395,0.386697 -0.13592,0.261885 -0.36097,0.539733 -0.69701,0.822537 -0.34047,0.286535 -0.78399,0.569837 -1.33749,0.844708 -0.55842,0.277316 -1.21545,0.539483 -1.96769,0.785137 -1.54729,0.505283 -3.45372,0.926644 -5.64559,1.270838 -2.30993,0.362733 -4.90401,0.634713 -7.67246,0.832146 -5.42672,0.387011 -12.21237,0.518998 -20.4225,0.345368 -7.67774,-0.162371 -16.30497,-0.586012 -25.653753,-1.252402 -19.716922,-1.405442 -41.34199,-3.80298 -61.08842,-6.154082 -16.187607,-1.927373 -30.54846888,-3.744243 -40.442171,-4.889573 -13.172342,-1.52488 -23.073183,-2.34047 -27.702838,-2.81445 z"
           id="path1"
           transform="matrix(1.5311141,0,0,1.2402434,-9.9375369,-9.8629598)"
           inkscape:original-d="m -38.562902,-107.3167 c 46.10623,6.16347 92.211503,12.326816 138.318701,18.490418 27.802501,-1.130989 55.603251,-2.261908 83.405751,-3.392897 -28.30221,-12.543751 -56.60322,-25.086971 -84.904855,-37.630471"
           inkscape:path-effect="#path-effect1-9;#path-effect3"
           sodipodi:nodetypes="cccc" /><path
           style="fill:#f32e23;fill-opacity:1;fill-rule:nonzero;stroke:#ffffff;stroke-width:0.379042;stroke-dasharray:none;stroke-opacity:1;marker-start:url(#CapRibbon1-7);marker-end:url(#CapTriangle-3)"
           d="m 17.644582,18.018569 c 3.355565,0.439006 10.750156,1.625192 20.606206,2.688335 8.131139,0.877082 20.779648,2.028762 35.862098,3.262411 15.329579,1.253863 33.156774,2.592053 53.063284,3.940294 10.40559,0.704757 20.91829,1.380383 31.16288,1.803583 10.97736,0.453471 20.78274,0.578902 29.41948,0.25532 8.49207,-0.318162 16.83185,-1.124659 23.54827,-2.872009 3.17076,-0.824908 5.99732,-1.863319 8.33187,-3.171511 1.15432,-0.646836 2.19199,-1.361621 3.09323,-2.152305 0.89959,-0.789239 1.66315,-1.654051 2.26992,-2.600976 0.60834,-0.949386 1.05036,-1.967764 1.33812,-3.045902 0.28912,-1.083282 0.42039,-2.218817 0.41329,-3.396029 -0.0144,-2.391426 -0.59991,-4.9587654 -1.59659,-7.6271265 -1.03718,-2.7768027 -2.52831,-5.68531168 -4.31132,-8.639279 -1.90162,-3.1504695 -4.14686,-6.3712836 -6.54006,-9.5424305 -5.70677,-7.56186 -12.67374,-15.370251 -17.97975,-21.145333 -1.46262,-1.591928 -2.86487,-3.099853 -4.13757,-4.459335 -6.62517,-7.076965 -15.94644,-16.692256 -17.40084,-18.197822 l -1.27301,-0.02201 -0.022,1.273015 c 1.46057,1.511955 10.76856,11.113588 17.38139,18.177371 1.26974,1.35632 2.66807,2.860044 4.12613,4.446996 5.2983,5.766702 12.21647,13.522537 17.86843,21.011765 2.3684,3.1382964 4.57547,6.3062674 6.43575,9.3882509 1.74614,2.89286523 3.17981,5.6982981 4.1661,8.3388424 0.94956,2.5422193 1.47003,4.8931507 1.48279,7.0079557 0.006,1.036236 -0.10939,2.010249 -0.35242,2.920845 -0.24141,0.904515 -0.60967,1.750975 -1.11448,2.538777 -0.50464,0.787545 -1.15226,1.526621 -1.94134,2.218905 -0.79151,0.694414 -1.72223,1.33897 -2.78596,1.93504 -2.15795,1.209233 -4.82771,2.199118 -7.90501,2.999713 -6.52774,1.698264 -14.71472,2.49877 -23.16233,2.815266 -8.5616,0.320767 -18.33271,0.161888 -29.26957,-0.342876 C 148.2124,27.355134 137.71469,26.618431 127.32173,25.851929 107.31858,24.376657 89.737135,22.945013 74.299004,21.688359 58.964336,20.440127 46.823785,19.455251 38.405252,18.912957 28.430307,18.270403 21.096226,18.167776 17.644582,18.018569 Z"
           id="path1-9"
           inkscape:path-effect="#path-effect1-6-1;#path-effect2"
           inkscape:original-d="m 17.644582,18.018569 c 34.38659,2.986927 68.772419,5.973788 103.159768,8.960781 47.27655,2.789831 94.55006,5.579483 141.82652,8.36931 -29.49769,-30.5355167 -58.99412,-61.069736 -88.49128,-91.604702"
           transform="matrix(1.5320243,0,0,1.1357914,-99.469589,-153.29865)"
           sodipodi:nodetypes="cccc" /><g
           id="g3"
           transform="matrix(1.962035,-0.48919025,0.48919025,1.962035,-138.57805,-191.18869)"
           style="fill:#f32e23;fill-opacity:1;stroke:#f32e23;stroke-opacity:1"><g
             id="g5"><path
               style="fill:none;stroke:#ffffff;stroke-width:0.872305;stroke-linecap:square;stroke-linejoin:round;stroke-dasharray:none;stroke-opacity:1;paint-order:markers fill stroke"
               d="m 136.5297,27.977884 3.1726,-3.37908 5.48228,-5.207654 0.57723,-0.244937 2.06698,2.051607 -0.21938,0.219374 -0.20656,0.192232 -4.42821,6.301679 -3.24493,3.453632 4.42416,5.464055 2.49676,-2.009348 c 0.26712,-0.178281 0.53734,-0.339285 0.76054,-0.211263 l 0.83449,0.876746 c 0.1852,0.251558 0.22545,0.615108 -0.0171,0.95175 l -1.75755,2.343968 -1.0425,-0.255704 1.35074,1.798175 -1.74942,-1.377088 0.2557,1.0201 -2.34396,1.757554 c -0.30563,0.229911 -0.62298,0.23357 -0.95174,0.01706 l -0.87675,-0.834491 c -0.16488,-0.317898 0.0537,-0.530882 0.21127,-0.760551 l 2.01756,-2.48235 -5.4506,-4.436553 -3.47528,3.242898 -6.27452,4.415411 -0.21938,0.219373 -0.21937,0.219374 -2.0516,-2.066986 0.24039,-0.579472 5.20764,-5.482297 3.38021,-3.168956 -1.96983,-2.308353 c -0.30175,-0.419696 -0.22818,-0.682951 0.0166,-0.930398 -0.78298,-1.286599 -0.25336,-1.516877 0.68618,-0.700777 0.31924,-0.251585 0.51404,-0.409223 1.01035,-0.08202 z"
               id="path2"
               sodipodi:nodetypes="cccccccccccccccccccccccccccccccccccccc" /><g
               id="g2"
               transform="matrix(0.02957688,3.9147314e-8,2.013381e-8,0.02957697,124.08466,8.540307)"
               style="fill:#f32e23;fill-opacity:1;stroke:#f32e23;stroke-opacity:1"><path
                 style="fill:#f32e23;fill-opacity:1;stroke:#f32e23;stroke-width:0;stroke-linecap:round;stroke-linejoin:round;stroke-dasharray:none;stroke-opacity:1"
                 d="M 762.55225,1068.078 532.9442,776.26751 470.20089,839.01082 Z"
                 id="path1-5" /><path
                 style="fill:#f32e23;fill-opacity:1;fill-rule:evenodd;stroke:#f32e23;stroke-width:10;stroke-linecap:butt;stroke-linejoin:round;stroke-miterlimit:4;stroke-dasharray:none;stroke-opacity:1"
                 d="m 299.30634,604.29452 -13.89576,12.6405 c -10.01698,9.11203 -6.72492,18.14739 -0.56333,31.45697 8.55582,18.48126 66.60194,78.04538 66.60194,78.04538 L 237.16345,833.5802 c 0,0 -152.816291,160.90941 -159.811748,168.8016 -6.760365,7.627 -29.502474,28.0739 -24.387285,36.1476 6.532259,10.3106 32.668962,34.5011 42.798854,43.8959 6.828579,6.3329 26.566059,25.989 26.566059,25.989 l 14.83413,-14.8341 212.14286,-149.2857 116.76777,-109.71157 c 0,0 11.44461,11.44319 25.34441,11.88033 11.63108,0.36581 18.79969,-0.39994 25.93314,-6.67855 l 9.24877,-8.14045"
                 id="path1952"
                 sodipodi:nodetypes="cssccsssccccssc" /><path
                 style="fill:#f32e23;fill-opacity:1;fill-rule:evenodd;stroke:#f32e23;stroke-width:10;stroke-linecap:butt;stroke-linejoin:round;stroke-miterlimit:4;stroke-dasharray:none;stroke-opacity:1"
                 d="m 706.1787,1027.0037 c 0,0 12.4133,33.7193 10.62759,35.5051 -1.78571,1.7857 -66.02865,49.0747 -79.24983,59.4231 -12.25484,9.5921 -25.93212,5.9231 -32.17874,0.5768 -6.15808,-5.2704 -27.59183,-21.9564 -29.64281,-28.2142 -2.10701,-6.4286 -4.33282,-12.4588 7.14285,-25.7143 10.09719,-11.6631 39.25275,-48.3201 46.42853,-57.1429 L 651.09203,984.65163 466.54507,834.56371"
                 id="path1954"
                 sodipodi:nodetypes="csssssscc" /><path
                 style="fill:#f32e23;fill-opacity:1;fill-rule:evenodd;stroke:#f32e23;stroke-width:10;stroke-linecap:butt;stroke-linejoin:round;stroke-miterlimit:4;stroke-dasharray:none;stroke-opacity:1"
                 d="m 586.99012,1106.7332 c 0,0 7.08161,-7.5359 10.08666,-10.3825 2.50002,2.7092 10.80093,11.5152 10.80093,11.5152 l 90.71434,-85.7143"
                 id="path1956"
                 sodipodi:nodetypes="cccc" /><path
                 style="fill:#f32e23;fill-opacity:1;fill-rule:evenodd;stroke:#f32e23;stroke-width:10;stroke-linecap:butt;stroke-linejoin:round;stroke-miterlimit:4;stroke-dasharray:none;stroke-opacity:1"
                 d="M 751.07769,1053.9517 C 750.3634,1051.8089 609.07778,905.03834 598.14258,894.83316 586.65273,884.09349 549.6491,855.38028 549.6491,855.38028"
                 id="path1958"
                 sodipodi:nodetypes="csc" /><path
                 style="fill:#f32e23;fill-opacity:1;fill-rule:evenodd;stroke:#f32e23;stroke-width:10;stroke-linecap:butt;stroke-linejoin:round;stroke-miterlimit:4;stroke-dasharray:none;stroke-opacity:1"
                 d="M 765.5077,1071.8737 650.81409,984.16449"
                 id="path1960"
                 sodipodi:nodetypes="cc" /><path
                 sodipodi:nodetypes="cssccsssccccssc"
                 id="path2848"
                 d="m 298.67337,604.92749 12.64052,-13.89578 c 9.11199,-10.01694 18.14733,-6.72486 31.45692,-0.56328 18.4813,8.55578 78.04543,66.6019 78.04543,66.6019 L 527.95906,542.7846 c 0,0 160.90943,-152.81632 168.80159,-159.81172 7.62699,-6.76037 28.07383,-29.50248 36.14759,-24.38727 10.31061,6.53225 34.50107,32.66896 43.89586,42.79885 6.33289,6.82858 25.98906,26.56606 25.98906,26.56606 L 787.95904,442.78464 638.67332,654.9275 528.96178,771.69523 c 0,0 11.4432,11.44461 11.8803,25.34446 0.36584,11.63104 -0.2189,18.96314 -6.67852,25.9331 l -7.63539,8.23864"
                 style="fill:#f32e23;fill-opacity:1;fill-rule:evenodd;stroke:#f32e23;stroke-width:10;stroke-linecap:butt;stroke-linejoin:round;stroke-miterlimit:4;stroke-dasharray:none;stroke-opacity:1" /><path
                 sodipodi:nodetypes="csssssscc"
                 id="path2850"
                 d="m 721.12999,1012.5574 c 0,0 33.97192,11.6557 35.75758,9.8701 1.78573,-1.7857 49.07481,-66.02871 59.42316,-79.24989 9.59215,-12.25483 5.92312,-25.93212 0.57687,-32.17874 -5.27047,-6.15808 -21.95642,-27.59183 -28.21423,-29.64281 -6.42862,-2.10701 -12.45885,-4.33282 -25.7143,7.14285 -11.66315,10.09719 -48.32012,39.25275 -57.14289,46.42853 L 679.03045,956.71322 528.94258,772.1662"
                 style="fill:#f32e23;fill-opacity:1;fill-rule:evenodd;stroke:#f32e23;stroke-width:10;stroke-linecap:butt;stroke-linejoin:round;stroke-miterlimit:4;stroke-dasharray:none;stroke-opacity:1" /><path
                 sodipodi:nodetypes="cccc"
                 id="path2852"
                 d="m 801.11204,892.61127 c 0,0 -7.53586,7.08161 -10.38251,10.08666 2.70923,2.50003 11.51521,10.80094 11.51521,10.80094 l -85.71423,90.71433"
                 style="fill:#f32e23;fill-opacity:1;fill-rule:evenodd;stroke:#f32e23;stroke-width:10;stroke-linecap:butt;stroke-linejoin:round;stroke-miterlimit:4;stroke-dasharray:none;stroke-opacity:1" /><path
                 sodipodi:nodetypes="csc"
                 id="path2854"
                 d="M 747.2591,1057.056 C 745.11628,1056.3417 599.41718,914.69894 589.212,903.76374 578.47236,892.27386 549.75914,855.27024 549.75914,855.27024"
                 style="fill:#f32e23;fill-opacity:1;fill-rule:evenodd;stroke:#f32e23;stroke-width:10;stroke-linecap:butt;stroke-linejoin:round;stroke-miterlimit:4;stroke-dasharray:none;stroke-opacity:1" /><path
                 sodipodi:nodetypes="cc"
                 id="path2856"
                 d="M 764.73733,1071.1289 678.54332,956.43525"
                 style="fill:#f32e23;fill-opacity:1;fill-rule:evenodd;stroke:#f32e23;stroke-width:10;stroke-linecap:butt;stroke-linejoin:round;stroke-miterlimit:4;stroke-dasharray:none;stroke-opacity:1" /><path
                 style="fill:#f32e23;fill-opacity:1;fill-rule:evenodd;stroke:#f32e23;stroke-width:10;stroke-linecap:butt;stroke-linejoin:round;stroke-miterlimit:4;stroke-dasharray:none;stroke-opacity:1"
                 d="M 348.59203,945.00878 237.16345,833.5802"
                 id="path1890" /><path
                 style="fill:#f32e23;fill-opacity:1;fill-rule:evenodd;stroke:#f32e23;stroke-width:10;stroke-linecap:butt;stroke-linejoin:round;stroke-miterlimit:4;stroke-dasharray:none;stroke-opacity:1"
                 d="m 136.092,1093.9374 -75.000006,-75"
                 id="path1892" /><path
                 style="fill:#f32e23;fill-opacity:1;fill-rule:evenodd;stroke:#f32e23;stroke-width:10;stroke-linecap:butt;stroke-linejoin:round;stroke-miterlimit:4;stroke-dasharray:none;stroke-opacity:1"
                 d="m 466.80632,834.65164 -15,-27.14285 -123.21429,117.49999 -209.28569,152.85712"
                 id="path1894" /><path
                 style="fill:#f32e23;fill-opacity:1;fill-rule:evenodd;stroke:#f32e23;stroke-width:10;stroke-linecap:butt;stroke-linejoin:round;stroke-miterlimit:4;stroke-dasharray:none;stroke-opacity:1"
                 d="M 436.80632,822.50878 346.09205,731.79451"
                 id="path1898" /><path
                 style="fill:#f32e23;fill-opacity:1;fill-rule:evenodd;stroke:#f32e23;stroke-width:10;stroke-linecap:butt;stroke-linejoin:round;stroke-miterlimit:4;stroke-dasharray:none;stroke-opacity:1"
                 d="m 426.62773,663.04447 c -2.14286,2.14285 -69.64281,68.92863 -69.64281,68.92863"
                 id="path1900"
                 sodipodi:nodetypes="cc" /><path
                 style="fill:#002e62;fill-opacity:1;fill-rule:evenodd;stroke:#f32e23;stroke-width:10;stroke-linecap:butt;stroke-linejoin:round;stroke-miterlimit:4;stroke-dasharray:none;stroke-opacity:1"
                 d="m 450.01017,687.25718 c -27.23333,-21.22085 -92.3861,37.74594 -70.71427,68.57146"
                 id="path1904"
                 sodipodi:nodetypes="cc" /><path
                 style="fill:#f32e23;fill-opacity:1;fill-rule:evenodd;stroke:#f32e23;stroke-width:10;stroke-linecap:butt;stroke-linejoin:round;stroke-miterlimit:4;stroke-dasharray:none;stroke-opacity:1"
                 d="m 391.62772,628.75875 c -2.14285,2.14286 -68.5714,67.14291 -68.5714,67.14291"
                 id="path1906"
                 sodipodi:nodetypes="cc" /><path
                 style="fill:#f32e23;fill-opacity:1;fill-rule:evenodd;stroke:#f32e23;stroke-width:10;stroke-linecap:butt;stroke-linejoin:round;stroke-miterlimit:4;stroke-dasharray:none;stroke-opacity:1"
                 d="M 364.633,739.61412 351.84375,726.82487"
                 id="path1908"
                 sodipodi:nodetypes="cc" /><path
                 style="fill:#f32e23;fill-opacity:1;fill-rule:evenodd;stroke:#f32e23;stroke-width:10;stroke-linecap:butt;stroke-linejoin:round;stroke-miterlimit:4;stroke-dasharray:none;stroke-opacity:1"
                 d="M 639.46359,654.36706 528.035,542.93846"
                 id="path3688"
                 sodipodi:nodetypes="cc" /><path
                 style="fill:#f32e23;fill-opacity:1;fill-rule:evenodd;stroke:#f32e23;stroke-width:10;stroke-linecap:butt;stroke-linejoin:round;stroke-miterlimit:4;stroke-dasharray:none;stroke-opacity:1"
                 d="M 788.39224,441.86698 713.39222,366.86696"
                 id="path3690" /><path
                 style="fill:#f32e23;fill-opacity:1;fill-rule:evenodd;stroke:#f32e23;stroke-width:10;stroke-linecap:butt;stroke-linejoin:round;stroke-miterlimit:4;stroke-dasharray:none;stroke-opacity:1"
                 d="m 529.10647,772.58132 -27.14285,-15 L 619.4636,634.36706 772.32076,425.08133"
                 id="path3692" /><path
                 style="fill:#f32e23;fill-opacity:1;fill-rule:evenodd;stroke:#f32e23;stroke-width:10;stroke-linecap:butt;stroke-linejoin:round;stroke-miterlimit:4;stroke-dasharray:none;stroke-opacity:1"
                 d="M 516.96362,742.58132 426.24933,651.86704"
                 id="path3694" /><path
                 style="fill:#002e62;fill-opacity:1;fill-rule:evenodd;stroke:#f32e23;stroke-width:10;stroke-linecap:butt;stroke-linejoin:round;stroke-miterlimit:4;stroke-dasharray:none;stroke-opacity:1"
                 d="m 452.03196,689.72492 c 90.73051,95.80271 98.61641,103.31821 67.95042,138.19667 -29.8583,33.95982 -42.66054,10.89708 -138.66469,-69.62521"
                 id="path1896"
                 sodipodi:nodetypes="csc" /><path
                 style="fill:#f32e23;fill-opacity:1;fill-rule:evenodd;stroke:#f32e23;stroke-width:10;stroke-linecap:butt;stroke-linejoin:round;stroke-miterlimit:4;stroke-dasharray:none;stroke-opacity:1"
                 d="M 433.55808,669.97481 420.76886,657.18558"
                 id="path3696"
                 sodipodi:nodetypes="cc" /><path
                 style="fill:#f32e23;fill-opacity:1;fill-rule:evenodd;stroke:#f32e23;stroke-width:10;stroke-linecap:butt;stroke-linejoin:round;stroke-miterlimit:4;stroke-dasharray:none;stroke-opacity:1"
                 d="m 308.61058,593.24161 c -37.27089,-23.01958 -40.9331,-13.90119 -22.5,22.5"
                 id="path3698"
                 sodipodi:nodetypes="cc" /></g></g></g></g></g></g></svg>
