<?xml version="1.0" encoding="UTF-8" standalone="no"?>
<!-- Created with Inkscape (http://www.inkscape.org/) -->

<svg
   version="1.0"
   width="275mm"
   height="275mm"
   id="svg1"
   sodipodi:docname="plane.svg"
   inkscape:version="1.4 (e7c3feb100, 2024-10-09)"
   xmlns:inkscape="http://www.inkscape.org/namespaces/inkscape"
   xmlns:sodipodi="http://sodipodi.sourceforge.net/DTD/sodipodi-0.dtd"
   xmlns:xlink="http://www.w3.org/1999/xlink"
   xmlns="http://www.w3.org/2000/svg"
   xmlns:svg="http://www.w3.org/2000/svg">
  <sodipodi:namedview
     id="namedview1"
     pagecolor="#ffffff"
     bordercolor="#000000"
     borderopacity="0.25"
     inkscape:showpageshadow="2"
     inkscape:pageopacity="0.0"
     inkscape:pagecheckerboard="0"
     inkscape:deskcolor="#d1d1d1"
     inkscape:zoom="0.73948778"
     inkscape:cx="630.84207"
     inkscape:cy="505.75548"
     inkscape:window-width="1290"
     inkscape:window-height="1033"
     inkscape:window-x="0"
     inkscape:window-y="0"
     inkscape:window-maximized="0"
     inkscape:current-layer="g1"
     inkscape:document-units="mm" />
  <defs
     id="defs4">
    <linearGradient
       id="linearGradient7"
       inkscape:collect="always">
      <stop
         style="stop-color:#ffe5e3;stop-opacity:1;"
         offset="0"
         id="stop6" />
      <stop
         style="stop-color:#ebf4fd;stop-opacity:0;"
         offset="1"
         id="stop7" />
    </linearGradient>
    <linearGradient
       id="linearGradient2"
       inkscape:collect="always">
      <stop
         style="stop-color:#ebf4fd;stop-opacity:1;"
         offset="0"
         id="stop2" />
      <stop
         style="stop-color:#ffe5e3;stop-opacity:0;"
         offset="1"
         id="stop3" />
    </linearGradient>
    <radialGradient
       inkscape:collect="always"
       xlink:href="#linearGradient2"
       id="radialGradient3"
       cx="441.71832"
       cy="357.71375"
       fx="441.71832"
       fy="357.71375"
       r="188.9765"
       gradientTransform="translate(0,2.3282799e-4)"
       gradientUnits="userSpaceOnUse" />
    <radialGradient
       inkscape:collect="always"
       xlink:href="#linearGradient7"
       id="radialGradient3-3"
       cx="441.71832"
       cy="357.71375"
       fx="441.71832"
       fy="357.71375"
       r="188.9765"
       gradientTransform="translate(519.68504,519.68527)"
       gradientUnits="userSpaceOnUse" />
  </defs>
  <g
     transform="translate(-158.25364,-74.249177)"
     id="g1">
    <path
       d="m 253.22747,427.84815 -0.48564,-19.05745 c 0,-10.87862 11.15298,-18.1509 11.15298,-18.1509 l 31.19857,-23.46109 0.29893,-27.23589 c 0.13075,-14.37533 17.74777,-10.02786 18.6631,-3.42299 l 1.15836,15.28302 35.02845,-23.84961 -1.66288,-21.51847 c -2.09218,-23.31133 17.43033,-19.77834 19.39177,-8.25217 l 1.71883,14.54303 50.19801,-38.2448 c 1.43838,-74.20776 1.78475,-104.74177 20.88608,-105.7235 19.22447,-0.98804 19.50402,34.71638 20.5501,104.65039 l 52.06612,39.05888 1.55064,-16.89249 c 0.91533,-9.97207 18.00931,-12.35822 17.48626,7.06789 l -0.72864,24.62667 35.34589,24.31223 1.84958,-14.00629 c 1.43838,-12.5622 17.44885,-13.69034 18.10266,5.86527 l 0.0933,25.25587 c -0.13076,0.90655 30.41399,21.907 30.41399,21.907 15.5607,9.71305 13.03995,21.38896 13.03995,21.38896 l -1.12093,16.17123 -126.75601,-59.89278 c -10.98403,-5.43931 -26.88968,-7.40672 -37.45701,5.16235 -5.49202,6.73439 -10.53656,32.49069 -10.14427,37.02346 l -1.38248,69.82855 c -0.26151,1.55409 50.45956,39.02182 50.45956,39.02182 1.30762,1.29509 4.85711,27.38378 4.85711,27.38378 l -63.31244,-17.59582 -6.01544,16.31907 -3.66174,-16.65221 -64.15333,17.68827 4.12884,-26.36602 c 9.0226,-5.56884 51.72977,-39.31792 52.12205,-40.48349 0,0 0.25856,-61.67032 0.16818,-65.29541 -0.52305,-20.98022 -1.10241,-28.43891 -4.89451,-35.30282 -3.79524,-6.86952 -14.33361,-12.00754 -40.50234,-5.80985 -36.09037,8.54747 -129.65169,54.65631 -129.65169,54.65631 z"
       id="path3166"
       style="fill:url(#radialGradient3);stroke:none;stroke-width:0.857755" />
    <path
       d="m 772.91251,947.53319 -0.48564,-19.05745 c 0,-10.87862 11.15298,-18.1509 11.15298,-18.1509 l 31.19857,-23.46109 0.29893,-27.23589 c 0.13075,-14.37533 17.74777,-10.02786 18.6631,-3.42299 l 1.15836,15.28302 35.02845,-23.84961 -1.66288,-21.51847 c -2.09218,-23.31133 17.43033,-19.77834 19.39177,-8.25217 l 1.71883,14.54303 50.19801,-38.2448 c 1.43838,-74.20776 1.78475,-104.74177 20.88612,-105.7235 19.2244,-0.98804 19.504,34.71638 20.5501,104.65039 l 52.06609,39.05888 1.5506,-16.89249 c 0.9154,-9.97207 18.0093,-12.35822 17.4863,7.06789 l -0.7286,24.62667 35.3458,24.31223 1.8496,-14.00629 c 1.4384,-12.5622 17.4489,-13.69034 18.1027,5.86527 l 0.093,25.25587 c -0.1308,0.90655 30.414,21.907 30.414,21.907 15.5607,9.71305 13.0399,21.38896 13.0399,21.38896 l -1.1209,16.17123 -126.756,-59.89278 c -10.984,-5.43931 -26.88969,-7.40672 -37.45699,5.16235 -5.4921,6.73439 -10.5366,32.49069 -10.1443,37.02346 l -1.3825,69.8286 c -0.2615,1.55399 50.45959,39.02179 50.45959,39.02179 1.3076,1.2951 4.8571,27.3838 4.8571,27.3838 l -63.31249,-17.5959 -6.0154,16.3191 -3.6617,-16.6522 -64.15337,17.6883 4.12884,-26.3661 c 9.0226,-5.5688 51.72977,-39.3179 52.12205,-40.48339 0,0 0.25856,-61.67037 0.16818,-65.29546 -0.52305,-20.98022 -1.10241,-28.43891 -4.89451,-35.30282 -3.79524,-6.86952 -14.33361,-12.00754 -40.50234,-5.80985 -36.09037,8.54747 -129.65169,54.65631 -129.65169,54.65631 z"
       id="path3166-6"
       style="fill:url(#radialGradient3-3);fill-opacity:1;stroke:none;stroke-width:0.857755" />
  </g>
</svg>
