<svg xmlns="http://www.w3.org/2000/svg" width="24" height="24" viewBox="0 -960 960 960"><path d="M80-120q-33 0-56.5-23.5T0-200v-560q0-33 23.5-56.5T80-840h800q33 0 56.5 23.5T960-760v560q0 33-23.5 56.5T880-120zm556-80h244v-560H80v560h4q42-75 116-117.5T360-360t160 42.5T636-200M360-400q50 0 85-35t35-85-35-85-85-35-85 35-35 85 35 85 85 35m400 160 80-80-60-80h-66q-6-18-10-38.5t-4-41.5 4-40.5 10-39.5h66l60-80-80-80q-54 42-87 106.5T640-480t33 133.5T760-240m-578 40h356q-34-38-80.5-59T360-280t-97 21-81 59m178-280q-17 0-28.5-11.5T320-520t11.5-28.5T360-560t28.5 11.5T400-520t-11.5 28.5T360-480m120 0"/></svg>